<svg width="29" height="24" viewBox="0 0 29 24" fill="none" xmlns="http://www.w3.org/2000/svg">
<path d="M27.833 11.9997C27.833 6.97136 27.833 4.4572 26.2709 2.8951C24.7088 1.33301 22.1947 1.33301 17.1663 1.33301H13.1663C10.5492 1.33301 9.24064 1.33301 8.11453 1.89606C6.98842 2.45912 6.20329 3.50597 4.63301 5.59967C2.3219 8.68116 1.16634 10.2219 1.16634 11.9997C1.16634 13.7775 2.3219 15.3182 4.63301 18.3997C6.20329 20.4934 6.98842 21.5402 8.11453 22.1033C9.24064 22.6663 10.5492 22.6663 13.1663 22.6663H17.1663C22.1947 22.6663 24.7088 22.6663 26.2709 21.1042C27.833 19.5421 27.833 17.028 27.833 11.9997Z" stroke="white" stroke-width="2"/>
<path d="M11.833 8L19.833 15.9995M11.833 16L19.833 8.00053" stroke="white" stroke-width="2" stroke-linecap="round" stroke-linejoin="round"/>
</svg>
