<svg width="23" height="18" viewBox="0 0 23 18" fill="none" xmlns="http://www.w3.org/2000/svg">
<path d="M1.5 9C1.5 5.46252 1.5 3.69377 2.5528 2.5129C2.72119 2.32403 2.90678 2.14935 3.10746 1.99087C4.36213 1 6.24142 1 10 1H13C16.7586 1 18.6379 1 19.8925 1.99087C20.0932 2.14935 20.2788 2.32403 20.4472 2.5129C21.5 3.69377 21.5 5.46252 21.5 9C21.5 12.5375 21.5 14.3062 20.4472 15.4871C20.2788 15.676 20.0932 15.8506 19.8925 16.0091C18.6379 17 16.7586 17 13 17H10C6.24142 17 4.36213 17 3.10746 16.0091C2.90678 15.8506 2.72119 15.676 2.5528 15.4871C1.5 14.3062 1.5 12.5375 1.5 9Z" stroke="#717171" stroke-width="1.5" stroke-linecap="round" stroke-linejoin="round"/>
<path d="M9.5 13H11" stroke="#717171" stroke-width="1.5" stroke-miterlimit="10" stroke-linecap="round" stroke-linejoin="round"/>
<path d="M14 13L17.5 13" stroke="#717171" stroke-width="1.5" stroke-miterlimit="10" stroke-linecap="round" stroke-linejoin="round"/>
<path d="M1.5 6H21.5" stroke="#717171" stroke-width="1.5" stroke-linejoin="round"/>
</svg>
